# xmcd
#
# Track frame offsets:
#	150
#	14407
#	30559
#	44923
#	59896
#	73257
#	85414
#	101540
#	115249
#	130036
#	146247
#	159966
#	173166
#	187500
#	199859
#	214983
#
# Disc length: 3140 seconds
# Revision: 1
# Processed by: cddbd v1.5.2PL0 Copyright (c) Steve Scherf et al.
# Submitted via: dBpowerAMP V12.0
#
DISCID=ee0c4210
DTITLE=Jason Aldean - 9
DYEAR=2019
DGENRE=Country
TTITLE0=Tattoos And Tequila
TTITLE1=Blame It On You
TTITLE2=Champagne Town
TTITLE3=Some Things You Don't Forget
TTITLE4=Got What I Got
TTITLE5=Keeping It Small Town
TTITLE6=Camouflage Hat
TTITLE7=Came Here To Drink
TTITLE8=We Back
TTITLE9=Dirt We Were Raised On
TTITLE10=I Don't Drink Anymore
TTITLE11=Cowboy Killer
TTITLE12=One For The Road
TTITLE13=Talk About Georgia
TTITLE14=The Same Way
TTITLE15=She Likes It
EXTD=
EXTT0=
EXTT1=
EXTT2=
EXTT3=
EXTT4=
EXTT5=
EXTT6=
EXTT7=
EXTT8=
EXTT9=
EXTT10=
EXTT11=
EXTT12=
EXTT13=
EXTT14=
EXTT15=
PLAYORDER=
